{
  "accessors": [
    {
      "bufferView": 2,
      "componentType": 5126,
      "count": 29624,
      "max": [
        1.174051284790039,
        5.460117340087891,
        4.878662109375
      ],
      "min": [
        -1.1742029190063477,
        -0.03855717182159424,
        -5.140979766845703
      ],
      "type": "VEC3"
    },
    {
      "bufferView": 2,
      "byteOffset": 355488,
      "componentType": 5126,
      "count": 29624,
      "max": [
        0.9999872446060181,
        1.0,
        0.9999485015869141
      ],
      "min": [
        -0.9999872446060181,
        -0.9999997615814209,
        -0.9998652935028076
      ],
      "type": "VEC3"
    },
    {
      "bufferView": 1,
      "componentType": 5126,
      "count": 29624,
      "max": [
        0.9931804537773132,
        0.9924716949462891
      ],
      "min": [
        0.005282998085021973,
        0.007634460926055908
      ],
      "type": "VEC2"
    },
    {
      "bufferView": 1,
      "byteOffset": 236992,
      "componentType": 5126,
      "count": 29624,
      "max": [
        0.9931804537773132,
        0.9924716949462891
      ],
      "min": [
        0.005282998085021973,
        0.007634460926055908
      ],
      "type": "VEC2"
    },
    {
      "bufferView": 1,
      "byteOffset": 473984,
      "componentType": 5126,
      "count": 29624,
      "max": [
        0.9931804537773132,
        0.9924716949462891
      ],
      "min": [
        0.005282998085021973,
        0.007634460926055908
      ],
      "type": "VEC2"
    },
    {
      "bufferView": 0,
      "componentType": 5125,
      "count": 158541,
      "type": "SCALAR"
    }
  ],
  "asset": {
    "extras": {
      "author": "neighbor (https://sketchfab.com/kylekip)",
      "license": "CC-BY-4.0 (http://creativecommons.org/licenses/by/4.0/)",
      "source": "https://sketchfab.com/3d-models/dog-e395f26615ca445ab32f01ded17ff3bf",
      "title": "dog"
    },
    "generator": "Sketchfab-14.86.0",
    "version": "2.0"
  },
  "bufferViews": [
    {
      "buffer": 0,
      "byteLength": 634164,
      "name": "floatBufferViews",
      "target": 34963
    },
    {
      "buffer": 0,
      "byteLength": 710976,
      "byteOffset": 634164,
      "byteStride": 8,
      "name": "floatBufferViews",
      "target": 34962
    },
    {
      "buffer": 0,
      "byteLength": 710976,
      "byteOffset": 1345140,
      "byteStride": 12,
      "name": "floatBufferViews",
      "target": 34962
    }
  ],
  "buffers": [
    {
      "byteLength": 2056116,
      "uri": "scene.bin"
    }
  ],
  "extensionsRequired": [
    "KHR_materials_pbrSpecularGlossiness"
  ],
  "extensionsUsed": [
    "KHR_materials_pbrSpecularGlossiness"
  ],
  "images": [
    {
      "uri": "textures/material_diffuse.png"
    },
    {
      "uri": "textures/material_specularGlossiness.png"
    }
  ],
  "materials": [
    {
      "doubleSided": true,
      "extensions": {
        "KHR_materials_pbrSpecularGlossiness": {
          "diffuseFactor": [
            1.0,
            1.0,
            1.0,
            1.0
          ],
          "diffuseTexture": {
            "index": 0
          },
          "glossinessFactor": 1.0,
          "specularFactor": [
            1.0,
            1.0,
            1.0
          ],
          "specularGlossinessTexture": {
            "index": 1
          }
        }
      },
      "name": "material"
    }
  ],
  "meshes": [
    {
      "name": "Object_0",
      "primitives": [
        {
          "attributes": {
            "NORMAL": 1,
            "POSITION": 0,
            "TEXCOORD_0": 2,
            "TEXCOORD_1": 3,
            "TEXCOORD_2": 4
          },
          "indices": 5,
          "material": 0,
          "mode": 4
        }
      ]
    }
  ],
  "nodes": [
    {
      "children": [
        1
      ],
      "matrix": [
        1.0,
        0.0,
        0.0,
        0.0,
        0.0,
        2.220446049250313e-16,
        -1.0,
        0.0,
        0.0,
        1.0,
        2.220446049250313e-16,
        0.0,
        0.0,
        0.0,
        0.0,
        1.0
      ],
      "name": "Sketchfab_model"
    },
    {
      "children": [
        2
      ],
      "name": "root"
    },
    {
      "children": [
        3
      ],
      "matrix": [
        1.0,
        0.0,
        0.0,
        0.0,
        0.0,
        2.220446049250313e-16,
        1.0,
        0.0,
        0.0,
        -1.0,
        2.220446049250313e-16,
        0.0,
        0.0,
        0.0,
        0.0,
        1.0
      ],
      "name": "GLTF_SceneRootNode"
    },
    {
      "children": [
        4
      ],
      "name": "root_0"
    },
    {
      "children": [
        5
      ],
      "matrix": [
        0.09311335533857346,
        0.0,
        0.0,
        0.0,
        0.0,
        0.09311335533857346,
        0.0,
        0.0,
        0.0,
        0.0,
        0.09311335533857346,
        0.0,
        7.010135050222743e-06,
        -0.25240981578826904,
        0.4786938428878784,
        1.0
      ],
      "name": "node_id126_1"
    },
    {
      "mesh": 0,
      "name": "Object_5"
    }
  ],
  "samplers": [
    {
      "magFilter": 9729,
      "minFilter": 9987,
      "wrapS": 10497,
      "wrapT": 10497
    }
  ],
  "scene": 0,
  "scenes": [
    {
      "name": "Sketchfab_Scene",
      "nodes": [
        0
      ]
    }
  ],
  "textures": [
    {
      "sampler": 0,
      "source": 0
    },
    {
      "sampler": 0,
      "source": 1
    }
  ]
}
